HIERARCHY
ROOT Hips
{
	OFFSET 0.000000 103.266502 0.000000
	CHANNELS 6 Xposition Yposition Zposition Xrotation Yrotation Zrotation 
	JOINT Spine
	{
		OFFSET -0.002400 12.777504 0.315300
		CHANNELS 3 Xrotation Yrotation Zrotation
		JOINT Spine1
		{
			OFFSET -0.002067 5.816869 0.032633
			CHANNELS 3 Xrotation Yrotation Zrotation
			JOINT Spine1_split
			{
				OFFSET -0.002067 5.816869 0.032633
				CHANNELS 3 Xrotation Yrotation Zrotation
				JOINT Spine2
				{
					OFFSET -0.002067 5.816869 0.032633
					CHANNELS 3 Xrotation Yrotation Zrotation
					JOINT Neck
					{
						OFFSET -0.003700 21.199493 -0.826900
						CHANNELS 3 Xrotation Yrotation Zrotation
						JOINT Head
						{
							OFFSET 0.000000 20.442200 4.834800
							CHANNELS 3 Xrotation Yrotation Zrotation
							JOINT HeadTop_End
							{
								OFFSET 0.000000 34.668396 4.968400
								CHANNELS 3 Xrotation Yrotation Zrotation
								End Site
								{
									OFFSET 0.000000 0.000000 0.000000
								}
							}
						}
					}
					JOINT LeftShoulder
					{
						OFFSET 3.288150 8.794197 -1.372250
						CHANNELS 3 Xrotation Yrotation Zrotation
						JOINT LeftShoulder_split
						{
							OFFSET 3.288150 8.794197 -1.372250
							CHANNELS 3 Xrotation Yrotation Zrotation
							JOINT LeftArm
							{
								OFFSET 11.953299 -2.279007 -0.146200
								CHANNELS 3 Xrotation Yrotation Zrotation
								JOINT LeftForeArm
								{
									OFFSET 18.448900 0.000000 0.000000
									CHANNELS 3 Xrotation Yrotation Zrotation
									JOINT LeftHand
									{
										OFFSET 29.527798 0.000000 0.000000
										CHANNELS 3 Xrotation Yrotation Zrotation
										JOINT LeftHandThumb1
										{
											OFFSET 10.739754 -2.369614 9.225399
											CHANNELS 3 Xrotation Yrotation Zrotation
											JOINT LeftHandThumb2
											{
												OFFSET 4.926170 -2.844131 2.844125
												CHANNELS 3 Xrotation Yrotation Zrotation
												JOINT LeftHandThumb3
												{
													OFFSET 4.614891 -2.664413 2.664409
													CHANNELS 3 Xrotation Yrotation Zrotation
													JOINT LeftHandThumb4
													{
														OFFSET 4.432465 -2.559082 2.559083
														CHANNELS 3 Xrotation Yrotation Zrotation
														End Site
														{
															OFFSET 0.000000 0.000000 0.000000
														}
													}
												}
											}
										}
										JOINT LeftHandIndex1
										{
											OFFSET 26.467674 0.187653 6.405298
											CHANNELS 3 Xrotation Yrotation Zrotation
											JOINT LeftHandIndex2
											{
												OFFSET 8.792900 0.000000 0.000000
												CHANNELS 3 Xrotation Yrotation Zrotation
												JOINT LeftHandIndex3
												{
													OFFSET 10.075203 0.000000 0.000000
													CHANNELS 3 Xrotation Yrotation Zrotation
													End Site
													{
														OFFSET 0.000000 0.000000 0.000000
													}
												}
											}
										}
										JOINT LeftHandMiddle1
										{
											OFFSET 25.764404 0.000000 0.000000
											CHANNELS 3 Xrotation Yrotation Zrotation
											JOINT LeftHandMiddle2
											{
												OFFSET 9.393974 0.000000 0.000000
												CHANNELS 3 Xrotation Yrotation Zrotation
												JOINT LeftHandMiddle3
												{
													OFFSET 10.771950 0.000000 0.000000
													CHANNELS 3 Xrotation Yrotation Zrotation
													End Site
													{
														OFFSET 0.000000 0.000000 0.000000
													}
												}
											}
										}
										JOINT LeftHandRing1
										{
											OFFSET 24.660927 0.144547 -6.225808
											CHANNELS 3 Xrotation Yrotation Zrotation
											JOINT LeftHandRing2
											{
												OFFSET 9.393799 0.000000 0.000000
												CHANNELS 3 Xrotation Yrotation Zrotation
												JOINT LeftHandRing3
												{
													OFFSET 9.928497 0.000000 0.000000
													CHANNELS 3 Xrotation Yrotation Zrotation
													End Site
													{
														OFFSET 0.000000 0.000000 0.000000
													}
												}
											}
										}
										JOINT LeftHandPinky1
										{
											OFFSET 23.655350 0.125290 -12.815412
											CHANNELS 3 Xrotation Yrotation Zrotation
											JOINT LeftHandPinky2
											{
												OFFSET 8.425102 0.000000 0.000000
												CHANNELS 3 Xrotation Yrotation Zrotation
												JOINT LeftHandPinky3
												{
													OFFSET 8.147003 0.000000 0.000000
													CHANNELS 3 Xrotation Yrotation Zrotation
													End Site
													{
														OFFSET 0.000000 0.000000 0.000000
													}
												}
											}
										}
									}
								}
							}
						}
					}
					JOINT RightShoulder
					{
						OFFSET -3.249400 8.794197 -1.372250
						CHANNELS 3 Xrotation Yrotation Zrotation
						JOINT RightShoulder_split
						{
							OFFSET -3.249400 8.794197 -1.372250
							CHANNELS 3 Xrotation Yrotation Zrotation
							JOINT RightArm
							{
								OFFSET -11.953299 -2.279007 -0.146200
								CHANNELS 3 Xrotation Yrotation Zrotation
								JOINT RightForeArm
								{
									OFFSET -18.448900 0.000000 0.000000
									CHANNELS 3 Xrotation Yrotation Zrotation
									JOINT RightHand
									{
										OFFSET -29.527802 0.000000 0.000000
										CHANNELS 3 Xrotation Yrotation Zrotation
										JOINT RightHandThumb1
										{
											OFFSET -10.739754 -2.369614 9.225399
											CHANNELS 3 Xrotation Yrotation Zrotation
											JOINT RightHandThumb2
											{
												OFFSET -4.926170 -2.844131 2.844125
												CHANNELS 3 Xrotation Yrotation Zrotation
												JOINT RightHandThumb3
												{
													OFFSET -4.614891 -2.664413 2.664409
													CHANNELS 3 Xrotation Yrotation Zrotation
													JOINT RightHandThumb4
													{
														OFFSET -4.432465 -2.559082 2.559083
														CHANNELS 3 Xrotation Yrotation Zrotation
														End Site
														{
															OFFSET 0.000000 0.000000 0.000000
														}
													}
												}
											}
										}
										JOINT RightHandIndex1
										{
											OFFSET -26.467674 0.187653 6.405298
											CHANNELS 3 Xrotation Yrotation Zrotation
											JOINT RightHandIndex2
											{
												OFFSET -8.792900 0.000000 0.000000
												CHANNELS 3 Xrotation Yrotation Zrotation
												JOINT RightHandIndex3
												{
													OFFSET -10.075203 0.000000 0.000000
													CHANNELS 3 Xrotation Yrotation Zrotation
													End Site
													{
														OFFSET 0.000000 0.000000 0.000000
													}
												}
											}
										}
										JOINT RightHandMiddle1
										{
											OFFSET -25.764404 0.000000 0.000000
											CHANNELS 3 Xrotation Yrotation Zrotation
											JOINT RightHandMiddle2
											{
												OFFSET -9.393974 0.000000 0.000000
												CHANNELS 3 Xrotation Yrotation Zrotation
												JOINT RightHandMiddle3
												{
													OFFSET -10.771950 0.000000 0.000000
													CHANNELS 3 Xrotation Yrotation Zrotation
													End Site
													{
														OFFSET 0.000000 0.000000 0.000000
													}
												}
											}
										}
										JOINT RightHandRing1
										{
											OFFSET -24.660927 0.144547 -6.225808
											CHANNELS 3 Xrotation Yrotation Zrotation
											JOINT RightHandRing2
											{
												OFFSET -9.393799 0.000000 0.000000
												CHANNELS 3 Xrotation Yrotation Zrotation
												JOINT RightHandRing3
												{
													OFFSET -9.928497 0.000000 0.000000
													CHANNELS 3 Xrotation Yrotation Zrotation
													End Site
													{
														OFFSET 0.000000 0.000000 0.000000
													}
												}
											}
										}
										JOINT RightHandPinky1
										{
											OFFSET -23.655350 0.125290 -12.815412
											CHANNELS 3 Xrotation Yrotation Zrotation
											JOINT RightHandPinky2
											{
												OFFSET -8.425102 0.000000 0.000000
												CHANNELS 3 Xrotation Yrotation Zrotation
												JOINT RightHandPinky3
												{
													OFFSET -8.147003 0.000000 0.000000
													CHANNELS 3 Xrotation Yrotation Zrotation
													End Site
													{
														OFFSET 0.000000 0.000000 0.000000
													}
												}
											}
										}
									}
								}
							}
						}
					}
				}
			}
		}
	}
	JOINT LeftUpLeg
	{
		OFFSET 11.394100 -6.187798 -0.413800
		CHANNELS 3 Xrotation Yrotation Zrotation
		JOINT LeftLeg
		{
			OFFSET 0.430247 -32.302673 3.732800
			CHANNELS 3 Xrotation Yrotation Zrotation
			JOINT LeftFoot
			{
				OFFSET -0.430247 -48.264931 -6.423300
				CHANNELS 3 Xrotation Yrotation Zrotation
				JOINT LeftToeBase
				{
					OFFSET 4.230900 -16.068199 23.438400
					CHANNELS 3 Xrotation Yrotation Zrotation
					JOINT LeftToe_End
					{
						OFFSET 4.510700 0.695400 19.974600
						CHANNELS 3 Xrotation Yrotation Zrotation
						End Site
						{
							OFFSET 0.000000 0.000000 0.000000
						}
					}
				}
			}
		}
	}
	JOINT RightUpLeg
	{
		OFFSET -11.333700 -6.187798 -0.413800
		CHANNELS 3 Xrotation Yrotation Zrotation
		JOINT RightLeg
		{
			OFFSET -0.430392 -32.302628 3.733000
			CHANNELS 3 Xrotation Yrotation Zrotation
			JOINT RightFoot
			{
				OFFSET 0.430392 -48.264973 -6.423500
				CHANNELS 3 Xrotation Yrotation Zrotation
				JOINT RightToeBase
				{
					OFFSET -4.230900 -16.068199 23.438400
					CHANNELS 3 Xrotation Yrotation Zrotation
					JOINT RightToe_End
					{
						OFFSET -4.510700 0.695400 19.974600
						CHANNELS 3 Xrotation Yrotation Zrotation
						End Site
						{
							OFFSET 0.000000 0.000000 0.000000
						}
					}
				}
			}
		}
	}
}
MOTION
Frames: 4
Frame Time: 0.016667
-0.094838 87.719887 -1.030968 -14.105923 4.530665 -0.297369 20.016411 -0.021631 0.783882 6.967311 -0.338753 0.679832 0.000000 0.000000 0.000000 6.967508 -0.337003 0.677442 -12.249458 -1.248218 -0.496002 -16.116683 -1.754211 -0.002246 -0.000000 -0.000000 -0.000000 3.082225 -9.945126 -6.811324 0.000000 0.000000 0.000000 -13.959251 -7.908236 -60.295264 69.634229 -63.509080 71.597062 17.167904 -2.491277 -13.648291 2.689267 3.159878 6.593320 -0.080952 21.143646 -2.540007 0.000003 -0.000014 -0.000000 0.000001 -0.000001 0.000002 -10.621188 2.937292 -19.267721 1.676650 6.185727 -21.756497 -0.000000 0.000000 -0.000001 -13.823020 9.936965 -22.469203 6.048992 4.246385 -31.221976 0.000000 0.000002 0.000001 -10.744665 8.325267 -36.571073 3.038184 0.221625 -39.078722 -0.000000 -0.000000 0.000000 -11.942421 9.095566 -39.265446 4.640660 -6.164092 -45.289301 0.000000 -0.000002 0.000002 8.709551 -2.418517 18.823132 0.000000 0.000000 0.000000 -21.494472 12.934317 56.855523 76.344180 65.516991 -70.724628 6.442917 -2.140719 3.544942 2.153165 -3.555304 -6.484349 -0.079159 -21.145992 2.540875 -0.000007 0.000001 -0.000001 -0.000001 -0.000001 -0.000002 -10.621232 -2.937080 19.269080 1.668976 -6.188789 21.755249 0.000003 0.000003 0.000000 -13.688466 -10.244138 24.164192 6.044750 -4.250335 31.223353 0.000000 -0.000003 0.000001 -10.744600 -8.325820 36.569997 3.037665 -0.220785 39.079296 -0.000000 0.000001 0.000000 -11.872869 -9.179251 39.251987 4.640921 6.162586 45.288847 0.000001 0.000001 0.000000 -25.032657 -3.956556 14.213522 57.686555 0.162756 0.432416 -17.972456 -2.018378 -12.543666 -0.000027 -0.000002 -0.000002 -0.000000 0.000000 -0.000000 -21.067800 -7.911020 -16.943491 57.213380 -0.422743 -0.460134 -20.835161 -3.273315 11.293782 -0.000043 -0.000002 0.000000 -0.000000 -0.000000 0.000000 
-0.077554 87.674049 -0.978788 -14.111149 4.555864 -0.324277 20.015543 -0.016994 0.801895 6.967176 -0.335989 0.689695 0.000000 0.000000 0.000000 6.967397 -0.333837 0.687153 -12.402450 -1.254037 -0.550726 -15.969518 -1.766949 -0.026611 -0.000001 0.000000 0.000000 2.956829 -10.038398 -7.341127 0.000000 0.000000 0.000000 -14.073636 -7.895402 -59.003655 69.357224 -63.656099 70.461160 17.123224 -2.624943 -13.215295 2.689264 3.159895 6.593335 -0.287832 20.662236 -2.531895 0.000001 -0.000013 -0.000003 -0.000000 0.000000 0.000001 -11.138162 2.712246 -18.389676 1.552164 5.861892 -19.735856 0.000001 -0.000002 -0.000004 -13.879089 10.042391 -21.846823 5.907024 4.051393 -29.917239 0.000002 -0.000000 -0.000001 -10.653137 8.348594 -36.293330 2.916226 0.076518 -38.156770 -0.000001 0.000003 0.000000 -11.616297 8.724553 -38.572995 4.514735 -6.309746 -43.933355 -0.000000 0.000002 0.000001 8.710145 -2.421087 18.860181 0.000000 0.000000 0.000000 -21.489469 12.863796 56.693681 76.539318 65.641793 -70.847490 6.461549 -2.179860 3.507924 2.153190 -3.555331 -6.484350 -0.610728 -20.410526 2.900123 -0.000007 0.000003 -0.000003 -0.000001 -0.000002 0.000000 -10.520681 -3.668425 20.527768 1.742405 -6.421454 23.270917 -0.000001 -0.000002 -0.000001 -12.798064 -11.730797 26.093221 7.096430 -4.803691 37.106382 -0.000000 0.000001 0.000001 -10.279118 -10.017711 38.435633 3.702681 -0.867345 43.457775 -0.000001 -0.000003 -0.000000 -11.226709 -10.556378 39.654173 5.236496 5.736005 47.984780 0.000001 0.000002 -0.000000 -25.077180 -3.982260 14.247862 57.823589 0.179933 0.433932 -18.063238 -2.064738 -12.555384 -0.000027 -0.000001 -0.000002 0.000000 0.000001 0.000000 -21.062596 -7.927737 -16.950084 57.294905 -0.423055 -0.461374 -20.907788 -3.272870 11.322804 -0.000043 -0.000002 0.000000 -0.000000 -0.000000 -0.000000 
-0.045208 87.596878 -0.885662 -14.124457 4.630904 -0.373064 20.011341 -0.007741 0.837991 6.966027 -0.327721 0.719249 0.000000 0.000000 0.000000 6.966384 -0.324708 0.716456 -12.555791 -1.289426 -0.611312 -15.824416 -1.789684 -0.122986 -0.000001 0.000000 0.000000 2.764792 -10.227419 -8.150478 0.000000 0.000000 0.000000 -14.313654 -7.958066 -56.721842 68.594347 -63.723363 67.966365 16.833729 -3.061344 -12.252570 2.689276 3.159878 6.593339 -0.630845 19.898832 -2.536158 0.000000 -0.000016 0.000001 0.000000 0.000000 -0.000001 -12.168902 1.722897 -16.142746 1.361306 5.271967 -16.144866 0.000000 0.000000 -0.000000 -13.999939 10.170338 -20.576846 5.654340 3.687275 -27.544213 -0.000002 0.000002 -0.000001 -10.488786 8.375480 -35.525730 2.674436 -0.231051 -36.299635 -0.000000 -0.000002 0.000001 -11.042159 8.059838 -37.136152 4.281205 -6.560034 -41.506206 -0.000001 -0.000000 0.000001 8.718464 -2.429204 18.921154 0.000000 0.000000 0.000000 -21.496048 12.656102 56.308284 77.004017 65.942580 -71.153065 6.484118 -2.258942 3.402537 2.153188 -3.555326 -6.484338 -1.483781 -19.373482 3.562833 -0.000002 -0.000002 -0.000000 0.000001 -0.000001 -0.000001 -10.129358 -5.075106 23.066157 1.897888 -6.845650 26.077679 -0.000001 -0.000002 0.000002 -11.051818 -14.266147 29.928294 8.898194 -5.409225 45.950753 0.000001 -0.000005 -0.000001 -9.577508 -12.642726 41.718567 4.859893 -1.754939 50.235382 -0.000001 0.000002 0.000000 -10.193555 -12.691889 40.965142 6.310987 5.065912 52.618042 -0.000001 0.000000 0.000002 -25.158186 -4.033193 14.308199 58.060180 0.169956 0.436003 -18.217376 -2.134162 -12.556866 -0.000027 -0.000002 -0.000002 0.000000 -0.000000 0.000000 -21.029773 -7.976170 -16.959862 57.422124 -0.428938 -0.463362 -21.035516 -3.284697 11.378194 -0.000043 -0.000002 0.000000 -0.000000 0.000000 -0.000000 
-0.011137 87.527832 -0.800383 -14.144238 4.742836 -0.416005 20.004376 0.004631 0.873427 6.959313 -0.313089 0.767879 0.000000 0.000000 0.000000 6.959680 -0.306489 0.764834 -12.549952 -1.367070 -0.625489 -15.846491 -1.813090 -0.313113 0.000000 -0.000000 0.000000 2.605482 -10.449065 -8.667085 0.000000 0.000000 0.000000 -14.613391 -8.282420 -54.611986 67.543891 -63.362517 64.922758 16.132893 -3.862270 -11.017627 2.689265 3.159891 6.593344 -0.900185 19.338176 -2.567391 0.000000 -0.000014 -0.000002 0.000000 -0.000001 0.000001 -13.757840 -1.808869 -12.928988 1.209583 4.688499 -12.660389 -0.000000 -0.000001 0.000001 -14.161502 10.155889 -19.030989 5.407132 3.296440 -25.125406 0.000001 0.000000 -0.000002 -10.326067 8.356979 -34.230890 2.383925 -0.635130 -34.078805 0.000000 -0.000001 -0.000001 -10.519294 7.413651 -35.362539 4.024504 -6.770215 -39.148633 0.000000 -0.000002 -0.000002 8.730929 -2.444811 18.974042 0.000000 0.000000 0.000000 -21.553775 12.391525 55.888901 77.539115 66.277294 -71.520673 6.490337 -2.336605 3.273604 2.153190 -3.555328 -6.484346 -2.139630 -18.745797 4.295031 -0.000002 -0.000001 -0.000002 0.000000 -0.000001 0.000000 -9.428677 -6.650072 26.075065 2.076147 -7.264217 28.901959 -0.000002 0.000001 0.000001 -8.933254 -16.558103 34.446495 9.998489 -5.648551 51.048906 0.000002 0.000002 -0.000000 -9.304919 -14.241881 44.634576 5.737665 -2.268985 54.937728 -0.000001 0.000004 0.000003 -9.441447 -13.995649 43.355818 7.329726 4.554873 56.877973 -0.000001 0.000002 0.000001 -25.226894 -4.140210 14.322584 58.278029 0.159564 0.437881 -18.352986 -2.167077 -12.554737 -0.000027 -0.000002 -0.000002 0.000000 0.000000 0.000000 -20.968939 -8.033301 -16.963318 57.524939 -0.435150 -0.464957 -21.153985 -3.332470 11.433787 -0.000043 -0.000002 0.000000 -0.000000 0.000000 -0.000000 
